<?xml version="1.0" encoding="UTF-8"?>
<svg xmlns="http://www.w3.org/2000/svg" viewBox="0 0 198.43 198.43">
  <defs>
    <style>
      .cls-1 {
        fill: #fff;
      }

      .cls-2 {
        fill: none;
      }

      .cls-3 {
        fill: #1d1d1b;
      }
    </style>
  </defs>
  <g id="Background">
    <rect class="cls-1" width="198.43" height="198.43"/>
  </g>
  <g id="Working-Layer">
    <g id="R">
      <path class="cls-2" d="M121.27,28.38c-.33,0-.67,0-1,.02-6.37,.18-12.28,2.18-17.25,5.49-.11,.07-.22,.14-.32,.22-1.17,.79-2.27,1.66-3.32,2.59-3.95,3.52-7.05,7.98-8.95,13.02-1.36,3.61-2.1,7.52-2.1,11.6,0,5.64,1.42,10.95,3.92,15.59,1.83,3.41,4.26,6.46,7.13,9.02,1.14,1.02,2.36,1.96,3.64,2.81,3.81,2.54,8.18,4.31,12.88,5.08,1.75,.29,3.54,.44,5.37,.44,5.11,0,9.96-1.17,14.28-3.25,11.04-5.32,18.66-16.62,18.66-29.69,0-18.2-14.75-32.94-32.94-32.94Zm-22.08,36.51l.19-.32v.64l-.19-.32Z"/>
      <circle class="cls-2" cx="121.27" cy="61.32" r="14.85"/>
      <rect class="cls-2" x="103.1" y="76.08" width="18.09" height="18.25" transform="translate(197.35 -26.94) rotate(90)"/>
      <rect class="cls-2" x="103.1" y="28.3" width="18.09" height="18.25" transform="translate(149.57 -74.72) rotate(90)"/>
      <polygon class="cls-2" points="179.09 166.42 163.14 175.64 151.47 155.42 116.15 94.26 115.9 93.82 105.7 76.16 99.38 65.21 99.38 64.57 99.19 64.89 90.43 49.72 88.75 46.8 82.12 35.32 98.08 26.1 99.38 28.35 99.39 28.37 102.7 34.11 103.02 34.66 109.83 46.46 109.84 46.47 111.81 49.88 126.44 75.23 135.55 91.01 172.74 155.42 179.09 166.42"/>
    </g>
    <g id="A">
      <polygon class="cls-2" points="99.38 64.57 99.38 65.21 99.19 64.89 99.38 64.57"/>
      <polygon class="cls-2" points="99.38 17.49 99.38 64.57 99.19 64.89 99.38 65.21 99.38 145.69 81.29 145.69 81.29 17.49 99.38 17.49"/>
      <polygon class="cls-2" points="127.48 15.9 120.27 28.38 120.27 28.4 109.83 46.46 109.83 46.47 99.38 64.57 99.19 64.89 92.25 76.91 81.29 95.9 46.92 155.42 35.25 175.64 19.58 166.59 26.03 155.42 81.29 59.71 88.75 46.8 99.38 28.38 99.39 28.37 111.81 6.85 127.48 15.9"/>
    </g>
    <rect class="cls-2" x="-13.56" y="155.42" width="215.14" height="47.72"/>
  </g>
  <g id="Done-Layer">
    <polygon class="cls-3" points="99.38 28.38 99.38 145.69 81.29 145.69 81.29 95.9 46.92 155.42 26.03 155.42 81.29 59.71 88.75 46.8 99.38 28.38"/>
    <path class="cls-3" d="M172.74,155.42h-21.27l-35.32-61.16-.25-.44-10.2-17.66h15.57c1.82,0,3.56-.33,5.17-.93,5.65-2.1,9.68-7.54,9.68-13.91,0-8.2-6.65-14.85-14.85-14.85h-18.25V28.38h17.25v.02c.33-.02,.67-.02,1-.02,18.19,0,32.94,14.74,32.94,32.94,0,13.07-7.62,24.37-18.66,29.69l37.19,64.41Z"/>
  </g>
</svg>